<svg width="30" height="34" viewBox="0 0 30 34" fill="none" xmlns="http://www.w3.org/2000/svg">
<path d="M10.9299 26.0668C13.3489 27.492 16.4289 27.492 18.8479 26.0668M14.6393 23.4238L10.3289 16.3401C10.1099 15.9803 9.91502 15.6053 9.77289 15.2088C8.93355 12.8673 8.88014 10.6521 10.0464 8.52385C10.5481 7.60845 11.3854 6.91746 12.3566 6.53476C13.8853 5.93235 15.2175 5.86532 16.8315 6.27106C18.1444 6.60111 19.3091 7.43403 19.9412 8.63119C21.1983 11.0123 20.9806 13.3355 19.8458 15.7995L15.0559 23.4238C14.9622 23.5795 14.7329 23.5795 14.6393 23.4238ZM15.0011 14.1671V14.1671C16.0367 14.1671 16.8761 13.3276 16.8761 12.2921V11.7921C16.8761 10.7565 16.0367 9.91705 15.0011 9.91705V9.91705C13.9656 9.91705 13.1261 10.7565 13.1261 11.7921V12.2921C13.1261 13.3276 13.9656 14.1671 15.0011 14.1671Z" stroke="white" stroke-linecap="round" stroke-linejoin="round"/>
</svg>
